<?xml version="1.0" encoding="utf-8"?>
<!-- Generator: Adobe Illustrator 16.0.0, SVG Export Plug-In . SVG Version: 6.00 Build 0)  -->
<!DOCTYPE svg PUBLIC "-//W3C//DTD SVG 1.1//EN" "http://www.w3.org/Graphics/SVG/1.1/DTD/svg11.dtd">
<svg version="1.1" xmlns="http://www.w3.org/2000/svg" xmlns:xlink="http://www.w3.org/1999/xlink" x="0px" y="0px" width="45px"
	 height="45px" viewBox="0 0 45 45" enable-background="new 0 0 45 45" xml:space="preserve">
<g id="home">
</g>
<g id="project" display="none">
</g>
<g id="membership" display="none">
</g>
<g id="header">
</g>
<g id="footer">
	<g>
		<circle id="XMLID_22_" fill="none" stroke="#FFFFFF" stroke-miterlimit="10" cx="22.5" cy="22.5" r="17.222"/>
		<path fill="#FFFFFF" d="M28.757,12.3H16.242c-2.174,0-3.941,1.769-3.941,3.941v4.165v1.533v6.818c0,2.174,1.768,3.942,3.941,3.942
			h12.516c2.174,0,3.943-1.769,3.943-3.942v-6.815v-1.536v-4.165C32.701,14.068,30.931,12.3,28.757,12.3z M29.888,14.652l0.45-0.004
			V15.1v3.007l-3.444,0.012l-0.013-3.458L29.888,14.652z M19.589,20.406c0.653-0.904,1.713-1.496,2.911-1.496
			s2.257,0.592,2.911,1.496c0.078,0.109,0.149,0.225,0.216,0.343c0.292,0.519,0.464,1.115,0.464,1.751
			c0,1.979-1.612,3.59-3.591,3.59c-1.98,0-3.591-1.611-3.591-3.59c0-0.637,0.171-1.232,0.464-1.752
			C19.44,20.631,19.51,20.516,19.589,20.406z M30.713,28.758c0,1.078-0.878,1.955-1.956,1.955H16.242
			c-1.078,0-1.955-0.877-1.955-1.955v-7.293v-1.059h3.046c-0.076,0.188-0.142,0.379-0.197,0.576
			c-0.138,0.482-0.213,0.99-0.213,1.518c0,3.076,2.502,5.578,5.578,5.578c3.075,0,5.578-2.502,5.578-5.578
			c0-0.527-0.076-1.035-0.215-1.519c-0.056-0.196-0.121-0.388-0.197-0.575h3.047v1.059V28.758z"/>
	</g>
</g>
</svg>
