<?xml version="1.0" encoding="utf-8"?>
<!-- Generator: Adobe Illustrator 16.0.0, SVG Export Plug-In . SVG Version: 6.00 Build 0)  -->
<!DOCTYPE svg PUBLIC "-//W3C//DTD SVG 1.1//EN" "http://www.w3.org/Graphics/SVG/1.1/DTD/svg11.dtd">
<svg version="1.1" xmlns="http://www.w3.org/2000/svg" xmlns:xlink="http://www.w3.org/1999/xlink" x="0px" y="0px" width="45px"
	 height="45px" viewBox="0 0 45 45" enable-background="new 0 0 45 45" xml:space="preserve">
<g id="home">
</g>
<g id="project" display="none">
</g>
<g id="membership" display="none">
</g>
<g id="header">
</g>
<g id="footer">
	<g>
		<circle id="XMLID_17_" fill="none" stroke="#FFFFFF" stroke-miterlimit="10" cx="22.5" cy="22.5" r="17.222"/>
		<path fill="#FFFFFF" d="M32.495,18.295c0,0-0.198-1.467-0.81-2.111c-0.775-0.846-1.646-0.852-2.042-0.9
			c-2.857-0.214-7.138-0.214-7.138-0.214h-0.01c0,0-4.283,0-7.137,0.214c-0.399,0.049-1.268,0.055-2.045,0.9
			c-0.609,0.646-0.81,2.112-0.81,2.112S12.3,20.017,12.3,21.738v0.208v1.405c0,1.723,0.204,3.443,0.204,3.443s0.2,1.467,0.81,2.111
			c0.777,0.848,1.798,0.82,2.25,0.908c1.633,0.162,6.937,0.215,6.937,0.215s4.285-0.008,7.143-0.223
			c0.396-0.049,1.267-0.053,2.042-0.9c0.611-0.646,0.81-2.111,0.81-2.111s0.206-1.721,0.206-3.443v-1.315v-0.298
			C32.701,20.017,32.495,18.295,32.495,18.295z M25.904,22.331l-5.51,2.978l-0.001-4.583v-1.394l2.484,1.352L25.904,22.331z"/>
	</g>
</g>
</svg>
