<?xml version="1.0" encoding="utf-8"?>
<!-- Generator: Adobe Illustrator 16.0.0, SVG Export Plug-In . SVG Version: 6.00 Build 0)  -->
<!DOCTYPE svg PUBLIC "-//W3C//DTD SVG 1.1//EN" "http://www.w3.org/Graphics/SVG/1.1/DTD/svg11.dtd">
<svg version="1.1" xmlns="http://www.w3.org/2000/svg" xmlns:xlink="http://www.w3.org/1999/xlink" x="0px" y="0px" width="45px"
	 height="45px" viewBox="0 0 45 45" enable-background="new 0 0 45 45" xml:space="preserve">
<g id="home">
</g>
<g id="project" display="none">
</g>
<g id="membership" display="none">
</g>
<g id="header">
</g>
<g id="footer">
	<g>
		<circle id="XMLID_10_" fill="none" stroke="#FFFFFF" stroke-miterlimit="10" cx="22.5" cy="22.5" r="17.222"/>
		<path id="XMLID_4_" fill="#FFFFFF" d="M32.701,17.246c-0.75,0.328-1.557,0.549-2.403,0.648c0.865-0.51,1.527-1.316,1.841-2.281
			c-0.809,0.475-1.706,0.816-2.659,1.002c-0.763-0.801-1.851-1.301-3.054-1.301c-2.312,0-4.186,1.844-4.186,4.119
			c0,0.324,0.037,0.637,0.107,0.939c-3.478-0.172-6.562-1.812-8.626-4.305c-0.359,0.607-0.567,1.316-0.567,2.07
			c0,1.43,0.74,2.689,1.862,3.43c-0.686-0.021-1.331-0.207-1.896-0.516c0,0.018,0,0.035,0,0.051c0,0.527,0.103,1.031,0.286,1.494
			c0.511,1.291,1.662,2.268,3.071,2.549c-0.352,0.092-0.721,0.143-1.104,0.143c-0.269,0-0.531-0.025-0.787-0.074
			c0.533,1.637,2.079,2.828,3.909,2.861c-1.433,1.105-3.236,1.764-5.198,1.764c-0.338,0-0.67-0.02-0.999-0.057
			c1.854,1.168,4.055,1.852,6.416,1.852c6.543,0,10.564-4.533,11.625-9.236c0.188-0.832,0.284-1.668,0.284-2.486
			c0-0.178-0.003-0.357-0.011-0.533C31.43,18.799,32.14,18.072,32.701,17.246z"/>
	</g>
</g>
</svg>
