<svg xmlns="http://www.w3.org/2000/svg" viewBox="0 0 509.41 226.77"><defs><style>.cls-1{fill:#fff;}</style></defs><title>Asset 1</title><g id="Layer_2" data-name="Layer 2"><g id="Layer_1-2" data-name="Layer 1"><polygon class="cls-1" points="264.41 87.19 269.01 87.19 269.01 47.29 270.01 47.29 281.21 85.59 287.31 85.59 298.61 47.29 299.51 47.29 299.51 87.19 304.21 87.19 304.21 42.89 295.61 42.89 284.31 80.89 273.01 42.89 264.41 42.89 264.41 87.19"/><path class="cls-1" d="M325.91,47.29h1.9l6.3,24.3h-14.6Zm-15.4,39.9h4.9l3.1-11.3h16.6l3.1,11.3h4.9l-11.4-44.3H322Z"/><polygon class="cls-1" points="371.71 87.19 377.21 87.19 364.61 64.79 376.51 42.89 371.01 42.89 360.31 63.09 354.31 63.39 354.31 42.89 349.51 42.89 349.51 87.19 354.31 87.19 354.31 67.69 360.41 67.49 371.71 87.19"/><polygon class="cls-1" points="383.11 87.19 407.81 87.19 407.81 82.79 387.91 82.79 387.91 66.79 404.21 66.79 404.21 62.49 387.91 62.49 387.91 47.29 407.81 47.29 407.81 42.89 383.11 42.89 383.11 87.19"/><path class="cls-1" d="M438.41,56.39c0,6.5-2.6,9.6-8.3,9.6h-9.7V47.19h9.7C435.81,47.19,438.41,50.19,438.41,56.39Zm.8,30.8h5.3L436,69.29c4.2-1.5,7.4-4.8,7.4-12.9,0-9.3-4.6-13.4-13.3-13.4h-14.6v44.3h4.9v-17h10.9Z"/><polygon class="cls-1" points="455.21 57.39 455.31 42.79 450.81 42.79 451.01 57.39 455.21 57.39"/><path class="cls-1" d="M487.51,43.59a77.46,77.46,0,0,0-11.8-1.3c-8.8,0-13.6,3.8-13.6,12.3,0,7.5,4.4,10,12.6,12,6,1.3,9,2.8,9,8.2,0,5.8-2.6,8.8-8.3,8.8-4.2,0-12.4-.9-12.4-.9l-.3,4a105.55,105.55,0,0,0,12.7,1.2c9.1,0,13.3-4.7,13.3-13.6,0-7.9-4-10.1-11.9-12.1-6.7-1.7-9.6-2.8-9.6-8.1s2.9-7.4,8.8-7.4c4.3,0,11.3.9,11.3.9Z"/><path class="cls-1" d="M277.21,113.39h1.9l6.3,24.3h-14.6Zm-15.4,39.9h4.9l3.1-11.3h16.6l3.1,11.3h4.9L283,109h-9.7Z"/><path class="cls-1" d="M323.51,109.69a77.46,77.46,0,0,0-11.8-1.3c-8.8,0-13.6,3.8-13.6,12.3,0,7.5,4.4,10,12.6,12,6,1.3,9,2.8,9,8.2,0,5.8-2.6,8.8-8.3,8.8-4.2,0-12.4-.9-12.4-.9l-.3,4a105.55,105.55,0,0,0,12.7,1.2c9.1,0,13.3-4.7,13.3-13.6,0-7.9-4-10.1-11.9-12.1-6.7-1.7-9.6-2.8-9.6-8.1s2.9-7.4,8.8-7.4c4.3,0,11.3.9,11.3.9Z"/><polygon class="cls-1" points="357.51 108.99 352.31 108.99 342.31 129.39 332.41 108.99 327.11 108.99 340.01 134.69 340.01 153.29 344.71 153.29 344.71 134.69 357.51 108.99"/><polygon class="cls-1" points="385.51 153.29 385.51 148.99 368.11 148.99 368.11 108.99 363.21 108.99 363.21 153.29 385.51 153.29"/><path class="cls-1" d="M395,109h-4.9v30.8c0,9.7,4.6,14.1,14.4,14.1s14.5-4.4,14.5-14.1V109h-4.9v31.1c0,6.8-2.9,9.5-9.5,9.5s-9.5-2.7-9.5-9.5V109Z"/><polygon class="cls-1" points="428.61 153.29 433.21 153.29 433.21 113.39 434.21 113.39 445.51 151.69 451.51 151.69 462.91 113.39 463.81 113.39 463.81 153.29 468.41 153.29 468.41 108.99 459.91 108.99 448.51 146.99 437.31 108.99 428.61 108.99 428.61 153.29"/><path class="cls-1" d="M499.41,39.29h1.9v-8.1l2.3,7.5h1.5l2.4-7.5v8.1h1.9V28.49h-2.6l-2.5,7.5-2.4-7.5h-2.6v10.8Zm-8.4-9h2.8v8.9h2v-8.9h2.4v-1.8H491Z"/><path class="cls-1" d="M251.32,175.77l-20.45-32.2q.74-3.72,1.19-7.52l-5.36.94-2.67-4.2.34,0a3.36,3.36,0,0,1,1.33-.77l6.9-2.05c.13-2.07.2-4.14.2-6.24,0-1.87-.06-3.73-.16-5.58l-5.33,1.93c-.79.29-2.32.39-3.07-1.68s1.45-3.09,1.45-3.09l6.45-3.21a104.1,104.1,0,0,0-2-11.67l-4.94,2.85c-.73.41-2.21.78-3.31-1.13s.89-3.3.89-3.3l5.81-4.29a101.5,101.5,0,0,0-4-11.13s-3.73,3.12-4.38,3.65-2,1.16-3.45-.53.31-3.41.31-3.41l5-5.22a99.61,99.61,0,0,0-5.86-10.26c-.14.17-3.14,3.71-3.66,4.34s-1.82,1.49-3.5.07-.28-3.41-.28-3.41l4-6a102.37,102.37,0,0,0-7.54-9.09c-.21.37-2.45,4.2-2.86,4.9s-1.52,1.78-3.42.67-.87-3.31-.87-3.31l2.89-6.59a104.27,104.27,0,0,0-9-7.66c-.14.36-1.69,4.57-2,5.32s-1.2,2-3.26,1.26-1.43-3.11-1.43-3.11l1.71-7a102.69,102.69,0,0,0-10.19-6c0,.15-.87,4.79-1,5.6s-.83,2.2-3,1.8-1.94-2.81-1.94-2.81l.47-7.2a103,103,0,0,0-11.74-4.35v5.7c0,.12,0,2.07,0,2.21l-13-20.2c-10.85-17.11-26.59-17.11-37.45,0L101.31,25l-.7,0a103.57,103.57,0,0,0-11.13,4l3.66,4.38c.53.65,1.15,2.05-.54,3.46s-3.4-.31-3.4-.31l-5.23-5a104.59,104.59,0,0,0-10.26,5.86L78.05,41c.64.54,1.49,1.81.07,3.5s-3.41.28-3.41.28l-6-4a104.58,104.58,0,0,0-9.1,7.54l4.9,2.86c.72.42,1.78,1.53.67,3.43s-3.3.87-3.3.87l-6.6-2.89a104.27,104.27,0,0,0-7.66,9l5.32,2c.79.29,2,1.19,1.26,3.26s-3.1,1.43-3.1,1.43l-7-1.71a104.67,104.67,0,0,0-6,10.19l5.6,1c.83.15,2.2.83,1.8,3s-2.81,1.94-2.81,1.94l-7.2-.47A102.29,102.29,0,0,0,31.14,94h5.7c.84,0,2.31.42,2.31,2.62S36.74,99,36.74,99l-7.18.82a104.09,104.09,0,0,0-2.06,11.64c.35-.06,4.8-.84,5.59-1a2.2,2.2,0,0,1,2.62,1.74l8.95,1-1.51,2.37-8-.87a3.22,3.22,0,0,1-1.33.77L27,117.52c-.12,2.06-.19,4.14-.19,6.24q0,2.8.15,5.58l5.33-1.94a2.17,2.17,0,0,1,2.75,1l-3,4.7-4.6,2.29c.16,1.37.35,2.73.55,4.08l-23,36.3c-10.86,17.1-3.17,31.1,17.09,31.1H73.2l-.63,2.56a102.77,102.77,0,0,0,10.19,6c0-.14.88-4.79,1-5.61s.83-2.2,3-1.8,1.94,2.81,1.94,2.81l-.47,7.21A101.08,101.08,0,0,0,100,222.39V216.7c0-.84.42-2.31,2.62-2.31S105,216.8,105,216.8l.83,7.17A101.32,101.32,0,0,0,117.49,226l-1-5.59a2.18,2.18,0,0,1,1.73-2.62l1.2-11H122l-1.25,11.48a3.36,3.36,0,0,1,.77,1.33l2.05,6.9c2.06.12,4.14.19,6.24.19q2.81,0,5.58-.15c-.13-.36-1.66-4.58-1.93-5.34s-.4-2.31,1.68-3.06,3.09,1.45,3.09,1.45l3.21,6.44a101.69,101.69,0,0,0,11.66-2c0-.08-2.42-4.22-2.84-4.94s-.78-2.21,1.13-3.31,3.29.89,3.29.89l4.3,5.81a103.62,103.62,0,0,0,11.13-4s-3.12-3.73-3.65-4.38-1.16-2,.53-3.45,3.4.31,3.4.31l5.23,5a102.6,102.6,0,0,0,10.26-5.86l-3.92-3.31h52.3C254.49,206.87,262.18,192.87,251.32,175.77Zm-16.73,19.38H21.65c-8.72,0-12-6-7.29-13.35L119.56,17.9c4.71-7.34,12.42-7.34,17.13,0l105.2,163.9C246.6,189.14,243.32,195.15,234.59,195.15Z"/><path class="cls-1" d="M122.61,137.72l-.21.18-.14.11-.14.12-.07.05,0,0h0l0,0-.13.11-.07.05,0,0h0v0l-.14.11-.08.05,0,0,0,0,0,0-.16.12-.19.13-.1.06-.1.06-.17.11h0l0,0-.08.06-.17.08-.15.08-.15.06-.06,0-.07,0-2.2.74-.18,0-.17.05-.15.06-.07,0-.07,0,0,0-.06.05,0,0,0,0,0,.05,0,.06,0,.11,0,.05v.35l0,.16,0,.16.07.18.1.19.05.1.06.11.57.59.57.6.6.59.61.6.64.57.32.29.32.29.67.57.67.58.86-.29.27-.5.28-.45.28-.44.29-.4.2-.26.2-.25.2-.23.21-.22,1.12-1,.39-.35.56-.49c0-.13,0-.26-.05-.38C126.2,141,124.68,139.57,122.61,137.72Z"/><path class="cls-1" d="M148.2,121.87l.86-.8.87-.8.89-.81.37-.34a8.19,8.19,0,0,1-2.87-3.45l-.18.15-.23.21-1,.82-.95.78-1,.79-.47.37-.47.37-.48.36-.48.37-.47.36-.24.17-.12.08-.12.1-.94.69-4.4,3.39-.76.61-.46.38-.49.41-.3.26-.55.48-.58.51-.16.13-.17.15-.46.4-.47.42-.44.4-.52.47-.53.5-.44.41-.37.33-.16.15a41.59,41.59,0,0,0,4.07,3h.33c.47,0,1,0,1.66.07l.62-.56.37-.34.79-.71.3-.29.84-.77.31-.29.47-.43.44-.42.79-.74.77-.72.75-.71.73-.68L145,125l.78-.78.8-.78.82-.78Z"/><path class="cls-1" d="M160.86,162.15V118.57a8.11,8.11,0,0,0,3.85-6.9,7.91,7.91,0,0,0-.27-2.08l-.33.27-1,.83-1,.83-1,.82-.49.43v.72l-2.24,2.18H155l-2.5-2.18v-3.38l2.5-2.55h.49l1-.88.46-.44.47-.44.25-.25.24-.23.47-.46.5-.49.37-.37a7.89,7.89,0,0,0-2.63-.44,8.11,8.11,0,0,0-8.11,8.11,8.07,8.07,0,0,0,3.56,6.71l.51.32v43.41a9.9,9.9,0,0,0-2.16,16.74l.86,0v-6.19l5.33-4.23,5.41,4.22v6.18h.94a9.86,9.86,0,0,0-2.07-16.66Zm-3.3-1.34a1.06,1.06,0,0,1-.12.48,1,1,0,0,1-.89.54,1,1,0,0,1-.88-.52,1,1,0,0,1-.14-.5V123.62a1,1,0,1,1,2,0Z"/><path class="cls-1" d="M98.09,105.1a16.91,16.91,0,0,1-2.1-2.2c-.27-1.14-.09-3.72-2.12-5.49a7.21,7.21,0,0,0-4.44-2l-.4,0a6.6,6.6,0,0,0-1.76.24,3.37,3.37,0,0,0-.88.35,1.43,1.43,0,0,0-.26.17l3.48,3.19a4.42,4.42,0,0,1-.14,2.23,5.45,5.45,0,0,1-.69,1,4.29,4.29,0,0,1-.81.55,5.33,5.33,0,0,1-.74.32l-3.34-2.94-1.55.08a6.14,6.14,0,0,0,2.38,6,5.43,5.43,0,0,0,3.63,1.22c1.1,0,2-.23,2.4-.23h.06c.18,0,3.12,2.48,7.28,6Z"/><path class="cls-1" d="M139.81,137.62c-2.46-2.22-4.8-1.78-6.24-1.88-2.36-.79-19.23-15.63-29.55-25.09v8c10.94,9.49,24.69,21.64,24.78,22,.14.66.3,4.39,2.18,6.26a5.35,5.35,0,0,0,3.74,1.83,3.87,3.87,0,0,0,1.16-.18,4.42,4.42,0,0,0,2-.63l-3.34-3.2v0h0a4.43,4.43,0,0,1,2.71-4h0l3.45,3.09,1.18-.06A6.26,6.26,0,0,0,139.81,137.62Z"/><polygon class="cls-1" points="177.46 113.05 177.36 112.61 177.25 112.19 177.14 111.75 177.03 111.32 176.91 110.88 176.78 110.46 176.65 110.02 176.51 109.59 176.37 109.15 176.22 108.73 176.07 108.29 175.92 107.86 175.58 107 175.41 106.56 175.24 106.13 174.86 105.27 174.47 104.41 174.05 103.55 173.62 102.69 173.39 102.25 173.16 101.83 172.68 100.97 172.18 100.12 171.93 99.66 171.67 99.23 171.42 98.82 171.15 98.44 170.88 98.07 170.61 97.73 170.33 97.41 170.04 97.12 169.76 96.83 169.47 96.57 169.17 96.34 168.87 96.13 168.57 95.93 168.26 95.77 167.95 95.62 167.63 95.5 167.53 95.53 167.41 95.56 167.27 95.59 167.14 95.6 167.01 95.62 166.89 95.61 166.76 95.61 166.71 95.59 166.65 95.59 166.59 95.57 166.52 95.57 166.41 95.52 166.29 95.48 166.25 95.45 166.19 95.43 166.08 95.38 165.98 95.3 165.87 95.22 165.78 95.14 165.72 95.09 165.67 95.04 165.58 94.94 165.49 94.82 165.45 94.75 165.4 94.69 165.31 94.56 165.22 94.42 165.18 94.34 165.16 94.3 165.14 94.27 165.06 94.11 164.98 93.94 164.91 93.76 164.83 93.57 164.76 93.37 164.73 93.27 164.69 93.18 164.63 92.96 164.56 92.74 164.5 92.5 164.44 92.27 162.14 89.93 161.88 90 161.62 90.07 161.37 90.15 161.13 90.23 160.91 90.32 160.69 90.41 160.49 90.51 160.29 90.61 160.12 90.7 159.96 90.8 159.8 90.9 159.66 91.02 159.52 91.13 159.39 91.24 159.27 91.36 159.16 91.5 159.03 91.66 158.91 91.84 158.82 92.02 158.73 92.22 158.67 92.4 158.61 92.62 158.57 92.83 158.54 93.05 160.4 95.73 160.66 95.77 160.89 95.81 161.12 95.86 161.34 95.93 161.76 96.08 162.14 96.27 162.48 96.48 162.79 96.73 162.93 96.86 163.06 97.01 163.18 97.16 163.28 97.33 163.39 97.48 163.49 97.66 163.56 97.84 163.64 98.04 163.71 98.23 163.76 98.44 163.81 98.66 163.84 98.89 163.87 99.13 163.9 99.36 163.91 99.61 163.91 99.87 163.88 100.41 163.81 100.99 163.65 101.1 163.49 101.21 163.2 101.43 163.07 101.54 162.95 101.66 162.74 101.9 162.65 102.01 162.56 102.13 162.49 102.25 162.42 102.37 162.32 102.62 162.28 102.74 162.25 102.87 161.27 103.87 161.03 104.11 160.91 104.23 160.79 104.36 160.3 104.86 159.81 105.33 159.33 105.82 158.84 106.29 158.6 106.52 158.35 106.77 157.87 107.23 157.38 107.69 154.18 110.52 154.18 112.03 156.67 114.21 156.87 114.21 160.23 111.31 161.21 110.48 162.23 109.64 163.26 108.81 164.31 107.97 165.38 107.12 165.47 107.12 165.52 107.12 165.56 107.12 165.74 107.12 165.84 107.1 165.94 107.1 166.15 107.07 166.37 107.02 166.6 106.97 166.85 106.9 166.97 106.86 167.1 106.82 167.16 106.79 167.23 106.77 167.36 106.72 167.64 106.62 167.94 106.49 168.23 106.36 168.55 106.22 168.71 106.14 168.88 106.06 169.21 105.89 169.31 105.84 169.39 105.8 169.56 105.72 169.73 105.67 169.89 105.66 170.04 105.66 170.19 105.68 170.33 105.71 170.47 105.77 170.59 105.85 170.7 105.95 170.81 106.06 170.91 106.19 171.01 106.35 171.1 106.53 171.19 106.71 171.26 106.92 171.33 107.15 171.38 107.41 171.77 107.73 171.96 107.9 172.15 108.09 172.5 108.47 172.85 108.86 173.2 109.28 173.53 109.72 173.85 110.17 174.01 110.4 174.16 110.66 174.46 111.15 174.75 111.67 175.03 112.21 175.17 112.48 175.3 112.77 175.56 113.35 175.81 113.96 176.05 114.58 176.27 115.23 176.56 115.27 176.82 115.28 177.07 115.28 177.29 115.27 177.5 115.23 177.69 115.17 177.86 115.09 178.01 115 177.64 113.92 177.46 113.05"/><path class="cls-1" d="M105.73,145.7s0,0,0-.08h0c0-.4-1-.75-2.44-.93-.22,0-1-.05-1.29-.07V97.67l.57-1.47-.67-4.76H100l-.68,4.76s.76,1.4.76,1.43v47c-.24,0-.05,0-.26,0-1.49.12-2.54.44-2.55.84h0a.19.19,0,0,0,0,.07c0,.17.14.32.39.46a3.89,3.89,0,0,1,.9,2.17,3.7,3.7,0,0,0-.45,1.5c-.53,6.26-1.06,19.28-1.59,25.54-.18,1.63.84,5.17,3.29,5.71a5.84,5.84,0,0,0,1.25.14,5.19,5.19,0,0,0,1-.1c2.47-.45,3.63-4,3.5-5.58-.29-6.28-.59-19.32-.89-25.6a3.75,3.75,0,0,0-.4-1.5,3.92,3.92,0,0,1,1-2.15C105.59,146,105.73,145.85,105.73,145.7Z"/></g></g></svg>